HIERARCHY
ROOT Model:Hips
{
	OFFSET 0.000000 96.915077 0.000000
	CHANNELS 6 Xposition Yposition Zposition Xrotation Yrotation Zrotation
	JOINT Model:Spine
	{
		OFFSET 0.000000 11.137703 -1.289900
		CHANNELS 3 Xrotation Yrotation Zrotation
		JOINT Model:Spine1
		{
			OFFSET 0.000000 12.993942 -1.504922
			CHANNELS 3 Xrotation Yrotation Zrotation
			JOINT Model:Spine2
			{
				OFFSET 0.000000 14.850220 -1.719911
				CHANNELS 3 Xrotation Yrotation Zrotation
				JOINT Model:Neck
				{
					OFFSET 0.000000 16.706543 -1.934903
					CHANNELS 3 Xrotation Yrotation Zrotation
					JOINT Model:Head
					{
						OFFSET 0.000000 10.471298 2.002100
						CHANNELS 3 Xrotation Yrotation Zrotation
						JOINT Model:HeadTop_End
						{
							OFFSET 0.000000 20.842606 3.985100
							CHANNELS 3 Xrotation Yrotation Zrotation
							End Site
							{
								OFFSET 0.000000 21.220154 0.000000
							}
						}
					}
				}
				JOINT Model:LeftShoulder
				{
					OFFSET 7.008500 14.768600 -1.919946
					CHANNELS 3 Xrotation Yrotation Zrotation
					JOINT Model:LeftArm
					{
						OFFSET 14.126271 -3.718048 0.029937
						CHANNELS 3 Xrotation Yrotation Zrotation
						JOINT Model:LeftForeArm
						{
							OFFSET 28.282801 0.000000 0.000000
							CHANNELS 3 Xrotation Yrotation Zrotation
							JOINT Model:LeftHand
							{
								OFFSET 26.204689 0.000000 0.000000
								CHANNELS 3 Xrotation Yrotation Zrotation
								End Site
								{
									OFFSET 26.204704 0.000000 0.000000
								}
							}
						}
					}
				}
				JOINT Model:RightShoulder
				{
					OFFSET -7.008500 14.768555 -1.949840
					CHANNELS 3 Xrotation Yrotation Zrotation
					JOINT Model:RightArm
					{
						OFFSET -14.126281 -3.718018 -0.029932
						CHANNELS 3 Xrotation Yrotation Zrotation
						JOINT Model:RightForeArm
						{
							OFFSET -28.283798 0.000000 -0.000001
							CHANNELS 3 Xrotation Yrotation Zrotation
							JOINT Model:RightHand
							{
								OFFSET -26.204193 0.000000 -0.000001
								CHANNELS 3 Xrotation Yrotation Zrotation
								End Site
								{
									OFFSET -26.204208 0.000000 -0.000001
								}
							}
						}
					}
				}
			}
		}
	}
	JOINT Model:LeftUpLeg
	{
		OFFSET 8.327700 -6.193199 -0.402800
		CHANNELS 3 Xrotation Yrotation Zrotation
		JOINT Model:LeftLeg
		{
			OFFSET 0.735802 -42.108742 -0.610721
			CHANNELS 3 Xrotation Yrotation Zrotation
			JOINT Model:LeftFoot
			{
				OFFSET -0.735806 -36.833748 -0.172876
				CHANNELS 3 Xrotation Yrotation Zrotation
				JOINT Model:LeftToeBase
				{
					OFFSET -0.565857 -11.977769 16.297714
					CHANNELS 3 Xrotation Yrotation Zrotation
					JOINT Model:LeftToe_End
					{
						OFFSET -0.111712 -0.312793 7.857784
						CHANNELS 3 Xrotation Yrotation Zrotation
						End Site
						{
							OFFSET -0.111712 -0.312793 7.857784
						}
					}
				}
			}
		}
	}
	JOINT Model:RightUpLeg
	{
		OFFSET -8.327700 -6.193199 -0.516500
		CHANNELS 3 Xrotation Yrotation Zrotation
		JOINT Model:RightLeg
		{
			OFFSET -0.735785 -42.108738 -0.434061
			CHANNELS 3 Xrotation Yrotation Zrotation
			JOINT Model:RightFoot
			{
				OFFSET 0.735776 -36.833748 -0.021630
				CHANNELS 3 Xrotation Yrotation Zrotation
				JOINT Model:RightToeBase
				{
					OFFSET 0.565817 -11.977745 15.903093
					CHANNELS 3 Xrotation Yrotation Zrotation
					JOINT Model:RightToe_End
					{
						OFFSET 0.111702 -0.312791 7.811342
						CHANNELS 3 Xrotation Yrotation Zrotation
						End Site
						{
							OFFSET 0.111702 -0.312791 7.811342
						}
					}
				}
			}
		}
	}
}
MOTION
Frames: 9
Frame Time: 0.016667
0.730187 89.133385 1.783611 11.907587 8.909492 2.158854 2.631260 -15.363078 -6.026191 1.397854 -2.050539 3.675167 3.700426 -1.956941 3.589022 -0.052520 1.061549 -1.321430 -1.542509 0.962107 -0.969192 -0.000001 0.000000 0.000000 1.393509 -2.709081 -2.069304 -38.721910 -12.004673 -57.051908 0.000124 -100.702431 0.000085 0.000001 0.000001 0.000001 0.546177 0.628803 -1.749433 58.686734 -4.854049 62.806567 -0.000204 90.479051 0.000305 0.000001 -0.000000 -0.000000 5.330169 10.246850 2.198655 28.511556 -10.707449 -7.520742 -16.600334 -5.715000 7.565989 -28.564490 0.008253 -0.030893 0.000000 0.000000 -0.000000 -57.863320 6.082908 -5.571204 124.805301 -10.330073 3.722122 -10.241950 -1.010699 -0.294093 -0.032455 -0.000001 0.000004 -0.000000 0.000001 0.000001 
1.005072 89.686172 3.238995 12.128285 8.887440 1.087652 -0.030375 -16.769274 -4.704654 1.944810 -2.233799 3.194340 4.977868 -2.146261 3.095286 -0.264599 1.355273 -1.184378 -1.626218 1.277797 -0.722525 0.000001 0.000001 -0.000000 1.160756 -1.769573 -1.324889 -41.464395 -13.229633 -54.777479 0.000048 -103.427000 0.000017 -0.000003 0.000006 0.000000 0.517316 0.625696 -2.788705 64.251125 -5.567708 62.937441 -0.000167 94.094516 0.000178 -0.000001 0.000000 0.000001 13.734166 14.214719 2.563280 19.532318 -7.051083 -5.793473 -0.481320 -0.817658 5.247753 -39.456982 2.856489 -5.688048 0.000000 0.000003 -0.000000 -60.447905 6.386615 -5.349400 116.293109 -9.979055 4.547853 -7.625066 -1.764327 0.421109 -0.039786 0.000003 0.000004 0.000001 0.000000 0.000000 
1.273429 90.758369 4.118176 12.293218 8.864970 0.355958 -1.924971 -17.715653 -3.580272 2.301732 -2.340637 2.852836 5.889007 -2.271164 2.707608 -0.375008 1.560928 -1.183686 -1.657378 1.505447 -0.570747 -0.000001 -0.000001 0.000000 1.052416 -1.299215 -1.141244 -41.994513 -14.970806 -52.693704 0.000045 -107.725129 0.000029 0.000001 0.000001 -0.000000 0.497162 0.594735 -3.700916 67.920549 -6.921934 64.582512 0.000075 96.513578 -0.000076 -0.000000 -0.000000 0.000000 19.603755 16.084158 2.100566 14.376343 -2.523715 -3.422997 15.771320 1.091175 7.455239 -24.765723 7.902970 -18.668644 -0.000001 0.000000 -0.000001 -62.298326 6.265005 -5.564047 106.204818 -9.060675 5.276484 -5.538111 -1.890382 -0.185626 -0.043174 -0.000002 0.000002 -0.000004 -0.000000 0.000000 
1.421168 92.170616 4.056547 12.438322 8.709726 0.020235 -3.027198 -18.103162 -2.882286 2.538834 -2.365434 2.739455 6.473559 -2.321963 2.525044 -0.463899 1.682832 -1.236029 -1.684380 1.644882 -0.494604 0.000003 -0.000000 -0.000000 1.070249 -1.333496 -1.340418 -40.420643 -16.887902 -51.203428 0.000011 -112.279649 0.000013 0.000002 0.000002 -0.000001 0.471713 0.529055 -4.315490 69.304543 -8.679512 67.519145 0.000006 97.631687 -0.000020 -0.000000 -0.000001 0.000000 21.368337 13.488243 1.645929 18.861094 1.254768 -0.801579 22.422070 1.195641 9.407504 0.292872 0.000007 -0.000002 -0.000001 -0.000002 0.000001 -62.527247 6.873525 -5.300754 94.278406 -8.427413 6.170244 -4.409793 -3.010362 1.265111 0.020402 0.000000 -0.000001 -0.000002 0.000001 0.000001 
1.385374 93.295166 4.212555 12.523050 8.414646 0.154311 -3.494141 -17.991951 -2.806177 2.685317 -2.325259 2.841957 6.789110 -2.307995 2.578511 -0.593704 1.730462 -1.269299 -1.747146 1.703651 -0.464430 0.000001 -0.000000 0.000000 1.178795 -1.778100 -1.688209 -36.700963 -18.432782 -50.554707 0.000031 -115.833001 0.000003 -0.000002 0.000000 -0.000002 0.477007 0.571366 -4.401286 68.412336 -10.701496 70.970474 0.000089 97.684587 -0.000090 -0.000000 -0.000000 -0.000000 21.615928 9.010392 1.178119 27.690518 0.268763 0.784304 23.529059 1.110199 7.807851 -0.085899 0.000000 0.000003 0.000000 0.000001 -0.000000 -61.078646 8.884687 -4.775617 81.328456 -8.073516 7.783079 -3.077790 -5.277935 4.120329 -0.335179 0.000001 0.000002 -0.000001 -0.000001 0.000000 
1.288727 93.858398 4.442854 12.454369 8.003124 0.410496 -3.386589 -17.483913 -2.987976 2.736947 -2.251993 3.087782 6.863076 -2.250845 2.827500 -0.789700 1.714421 -1.245343 -1.864419 1.692765 -0.453622 0.000002 -0.000001 0.000000 1.344454 -2.488849 -2.073824 -30.871284 -19.111434 -50.868244 0.000039 -117.638643 0.000013 -0.000000 -0.000000 0.000003 0.541236 0.825350 -3.893608 65.571353 -12.816174 74.011138 0.000014 97.043177 -0.000001 0.000001 0.000000 0.000001 20.417876 5.642028 1.047468 39.473740 -5.919354 1.324984 24.527252 0.633050 3.497978 -0.361651 0.000002 0.000001 -0.000000 -0.000000 -0.000000 -58.343346 10.430559 -4.409312 68.017462 -7.183607 8.728884 -4.073496 -6.674058 6.380537 -0.767887 0.000003 -0.000002 -0.000000 0.000001 -0.000000 
1.258217 94.302254 4.130339 12.138680 7.690487 0.524845 -2.736542 -16.830076 -3.062509 2.671084 -2.171905 3.396063 6.673566 -2.169726 3.178325 -1.040186 1.643355 -1.168014 -2.030377 1.622827 -0.447921 0.000001 -0.000001 0.000000 1.548065 -3.347282 -2.525878 -23.273713 -18.764333 -52.182013 -0.000018 -117.550684 -0.000017 0.000003 0.000001 -0.000000 0.647544 1.260726 -2.970746 61.320182 -14.689140 76.004303 0.000154 96.048415 -0.000196 0.000001 -0.000000 0.000002 18.029379 3.825627 1.022686 52.698328 -8.954616 1.506935 26.824282 -0.764296 0.479508 -0.070226 0.000001 -0.000000 -0.000001 0.000001 -0.000000 -54.118181 9.597586 -4.434919 52.881394 -5.310559 7.494192 -7.384208 -5.783537 7.816862 -0.361865 -0.000001 0.000003 0.000000 0.000000 0.000001 
1.262951 94.677902 3.585210 11.550784 7.462671 0.622158 -1.603654 -15.995424 -3.015923 2.457518 -2.086752 3.688777 6.166215 -2.068196 3.509504 -1.311137 1.522804 -1.075057 -2.220053 1.501920 -0.447275 0.000000 0.000001 -0.000000 1.766581 -4.258015 -3.095129 -14.583034 -17.654413 -54.395456 -0.000018 -115.794861 -0.000024 -0.000003 0.000000 -0.000003 0.759021 1.754456 -1.893445 56.254749 -15.943613 76.798135 -0.000000 94.930730 -0.000031 0.000000 -0.000002 -0.000000 15.620310 4.150131 0.907301 65.711269 -8.701545 2.452822 28.695100 -1.695848 -0.038741 0.050327 -0.000000 -0.000003 -0.000003 -0.000001 -0.000000 -48.760666 9.666860 -3.421867 35.714134 -5.284517 4.716258 -7.258356 -4.495505 8.863242 -0.868223 -0.000000 0.000002 -0.000000 0.000001 -0.000000 
1.249577 94.719040 3.707727 10.774678 7.112145 0.800700 0.011693 -14.752092 -2.828466 2.072061 -1.970694 3.869835 5.299872 -1.930813 3.699243 -1.564238 1.355952 -1.019166 -2.399403 1.335525 -0.460859 0.000000 0.000001 -0.000000 1.967922 -5.122490 -3.736261 -5.620102 -16.206965 -57.155382 0.000002 -112.630379 0.000011 -0.000003 -0.000000 -0.000001 0.857945 2.195485 -0.764650 50.859532 -16.390574 76.586440 0.000169 93.774618 -0.000183 -0.000001 -0.000000 -0.000001 13.931827 4.906603 0.666145 77.471079 -6.263757 3.248479 28.080789 -0.728118 0.883532 -0.051964 -0.000000 0.000001 -0.000003 0.000001 0.000001 -43.601448 12.278267 -1.270756 18.868343 -8.825848 0.056393 1.672300 -5.083518 9.517582 -6.546550 0.000001 0.000005 0.000001 -0.000000 -0.000001 
